<mxfile host="app.diagrams.net" modified="2024-03-17T13:59:07.373Z" agent="Mozilla/5.0 (Windows NT 10.0; Win64; x64) AppleWebKit/537.36 (KHTML, like Gecko) Chrome/122.0.0.0 Safari/537.36" etag="YCU4aR3sHZudpetj-hl0" version="24.0.7" type="device">
  <diagram id="prtHgNgQTEPvFCAcTncT" name="Page-1">
    <mxGraphModel dx="2012" dy="-80" grid="1" gridSize="10" guides="1" tooltips="1" connect="1" arrows="1" fold="1" page="1" pageScale="1" pageWidth="827" pageHeight="1169" math="0" shadow="0">
      <root>
        <mxCell id="0" />
        <mxCell id="1" parent="0" />
        <mxCell id="vkENzP75K5TKaXmKiikp-88" value="" style="rounded=0;whiteSpace=wrap;html=1;" parent="1" vertex="1">
          <mxGeometry x="-617" y="1610" width="10" height="800" as="geometry" />
        </mxCell>
        <mxCell id="vkENzP75K5TKaXmKiikp-89" value="" style="rounded=0;whiteSpace=wrap;html=1;" parent="1" vertex="1">
          <mxGeometry x="-377" y="1610" width="10" height="800" as="geometry" />
        </mxCell>
        <mxCell id="vkENzP75K5TKaXmKiikp-90" value="" style="rounded=0;whiteSpace=wrap;html=1;" parent="1" vertex="1">
          <mxGeometry x="-137" y="1610" width="10" height="800" as="geometry" />
        </mxCell>
        <mxCell id="vkENzP75K5TKaXmKiikp-91" value="Зарегистрированный&amp;nbsp;&lt;div&gt;пользователь&lt;/div&gt;" style="shape=umlActor;verticalLabelPosition=bottom;verticalAlign=top;html=1;outlineConnect=0;" parent="1" vertex="1">
          <mxGeometry x="-627" y="1510" width="30" height="60" as="geometry" />
        </mxCell>
        <mxCell id="vkENzP75K5TKaXmKiikp-92" value="" style="group" parent="1" vertex="1" connectable="0">
          <mxGeometry x="-424.5" y="1530" width="105" height="40" as="geometry" />
        </mxCell>
        <mxCell id="vkENzP75K5TKaXmKiikp-93" value="" style="rounded=0;whiteSpace=wrap;html=1;" parent="vkENzP75K5TKaXmKiikp-92" vertex="1">
          <mxGeometry width="105" height="40" as="geometry" />
        </mxCell>
        <mxCell id="vkENzP75K5TKaXmKiikp-94" value=":Устройство" style="text;html=1;align=center;verticalAlign=middle;resizable=0;points=[];autosize=1;strokeColor=none;fillColor=none;" parent="vkENzP75K5TKaXmKiikp-92" vertex="1">
          <mxGeometry x="7.5" y="5" width="90" height="30" as="geometry" />
        </mxCell>
        <mxCell id="vkENzP75K5TKaXmKiikp-95" value="" style="group" parent="1" vertex="1" connectable="0">
          <mxGeometry x="-184.5" y="1530" width="105" height="40" as="geometry" />
        </mxCell>
        <mxCell id="vkENzP75K5TKaXmKiikp-96" value="" style="rounded=0;whiteSpace=wrap;html=1;" parent="vkENzP75K5TKaXmKiikp-95" vertex="1">
          <mxGeometry width="105" height="40" as="geometry" />
        </mxCell>
        <mxCell id="vkENzP75K5TKaXmKiikp-97" value=":Сервер" style="text;html=1;align=center;verticalAlign=middle;resizable=0;points=[];autosize=1;strokeColor=none;fillColor=none;" parent="vkENzP75K5TKaXmKiikp-95" vertex="1">
          <mxGeometry x="17.5" y="5" width="70" height="30" as="geometry" />
        </mxCell>
        <mxCell id="vkENzP75K5TKaXmKiikp-98" value="" style="endArrow=none;dashed=1;html=1;rounded=0;entryX=0.5;entryY=1;entryDx=0;entryDy=0;exitX=0.5;exitY=0;exitDx=0;exitDy=0;" parent="1" source="vkENzP75K5TKaXmKiikp-89" target="vkENzP75K5TKaXmKiikp-93" edge="1">
          <mxGeometry width="50" height="50" relative="1" as="geometry">
            <mxPoint x="-307" y="1660" as="sourcePoint" />
            <mxPoint x="-257" y="1610" as="targetPoint" />
          </mxGeometry>
        </mxCell>
        <mxCell id="vkENzP75K5TKaXmKiikp-99" value="" style="endArrow=none;dashed=1;html=1;rounded=0;entryX=0.5;entryY=1;entryDx=0;entryDy=0;exitX=0.5;exitY=0;exitDx=0;exitDy=0;" parent="1" source="vkENzP75K5TKaXmKiikp-90" target="vkENzP75K5TKaXmKiikp-96" edge="1">
          <mxGeometry width="50" height="50" relative="1" as="geometry">
            <mxPoint x="-362" y="1620" as="sourcePoint" />
            <mxPoint x="-362" y="1580" as="targetPoint" />
          </mxGeometry>
        </mxCell>
        <mxCell id="vkENzP75K5TKaXmKiikp-100" value="" style="group" parent="1" vertex="1" connectable="0">
          <mxGeometry x="-562" y="1630" width="140" height="30" as="geometry" />
        </mxCell>
        <mxCell id="vkENzP75K5TKaXmKiikp-101" value="" style="endArrow=classic;html=1;rounded=0;exitX=1.029;exitY=0.051;exitDx=0;exitDy=0;exitPerimeter=0;entryX=-0.19;entryY=0.052;entryDx=0;entryDy=0;entryPerimeter=0;" parent="vkENzP75K5TKaXmKiikp-100" source="vkENzP75K5TKaXmKiikp-88" target="vkENzP75K5TKaXmKiikp-89" edge="1">
          <mxGeometry width="50" height="50" relative="1" as="geometry">
            <mxPoint x="-5" y="80" as="sourcePoint" />
            <mxPoint x="45" y="30" as="targetPoint" />
          </mxGeometry>
        </mxCell>
        <mxCell id="vkENzP75K5TKaXmKiikp-102" value="Открыть приложение" style="text;html=1;align=center;verticalAlign=middle;resizable=0;points=[];autosize=1;strokeColor=none;fillColor=none;" parent="vkENzP75K5TKaXmKiikp-100" vertex="1">
          <mxGeometry width="140" height="30" as="geometry" />
        </mxCell>
        <mxCell id="vkENzP75K5TKaXmKiikp-103" value="" style="endArrow=none;html=1;rounded=0;" parent="1" edge="1">
          <mxGeometry width="50" height="50" relative="1" as="geometry">
            <mxPoint x="-747" y="1720" as="sourcePoint" />
            <mxPoint x="-27" y="1720" as="targetPoint" />
          </mxGeometry>
        </mxCell>
        <mxCell id="vkENzP75K5TKaXmKiikp-104" value="&lt;b&gt;Редактирование&lt;/b&gt;&lt;div&gt;&lt;b&gt;профиля&lt;/b&gt;&lt;/div&gt;&lt;div&gt;&lt;b&gt;пользователя&lt;/b&gt;&lt;/div&gt;" style="text;html=1;align=center;verticalAlign=middle;resizable=0;points=[];autosize=1;strokeColor=none;fillColor=none;" parent="1" vertex="1">
          <mxGeometry x="-747" y="1725" width="120" height="60" as="geometry" />
        </mxCell>
        <mxCell id="vkENzP75K5TKaXmKiikp-105" value="" style="group" parent="1" vertex="1" connectable="0">
          <mxGeometry x="-562" y="1735" width="165" height="40" as="geometry" />
        </mxCell>
        <mxCell id="vkENzP75K5TKaXmKiikp-106" value="" style="endArrow=classic;html=1;rounded=0;exitX=1.267;exitY=0.202;exitDx=0;exitDy=0;exitPerimeter=0;entryX=-0.267;entryY=0.203;entryDx=0;entryDy=0;entryPerimeter=0;" parent="vkENzP75K5TKaXmKiikp-105" source="vkENzP75K5TKaXmKiikp-88" target="vkENzP75K5TKaXmKiikp-89" edge="1">
          <mxGeometry width="50" height="50" relative="1" as="geometry">
            <mxPoint x="55" y="105" as="sourcePoint" />
            <mxPoint x="105" y="55" as="targetPoint" />
          </mxGeometry>
        </mxCell>
        <mxCell id="vkENzP75K5TKaXmKiikp-107" value="Открыть страницу&lt;div&gt;профиля пользователя&lt;/div&gt;" style="text;html=1;align=center;verticalAlign=middle;resizable=0;points=[];autosize=1;strokeColor=none;fillColor=none;" parent="vkENzP75K5TKaXmKiikp-105" vertex="1">
          <mxGeometry x="-10" width="150" height="40" as="geometry" />
        </mxCell>
        <mxCell id="vkENzP75K5TKaXmKiikp-108" value="" style="group" parent="1" vertex="1" connectable="0">
          <mxGeometry x="-562" y="1656" width="150" height="40" as="geometry" />
        </mxCell>
        <mxCell id="vkENzP75K5TKaXmKiikp-109" value="" style="endArrow=classic;html=1;rounded=0;entryX=1.105;entryY=0.101;entryDx=0;entryDy=0;entryPerimeter=0;exitX=-0.229;exitY=0.102;exitDx=0;exitDy=0;exitPerimeter=0;dashed=1;" parent="vkENzP75K5TKaXmKiikp-108" source="vkENzP75K5TKaXmKiikp-89" target="vkENzP75K5TKaXmKiikp-88" edge="1">
          <mxGeometry width="50" height="50" relative="1" as="geometry">
            <mxPoint x="90" y="74" as="sourcePoint" />
            <mxPoint x="140" y="24" as="targetPoint" />
          </mxGeometry>
        </mxCell>
        <mxCell id="vkENzP75K5TKaXmKiikp-110" value="Отобразить главную&lt;div&gt;страницу приложения&lt;/div&gt;" style="text;html=1;align=center;verticalAlign=middle;resizable=0;points=[];autosize=1;strokeColor=none;fillColor=none;" parent="vkENzP75K5TKaXmKiikp-108" vertex="1">
          <mxGeometry width="150" height="40" as="geometry" />
        </mxCell>
        <mxCell id="vkENzP75K5TKaXmKiikp-111" value="" style="group" parent="1" vertex="1" connectable="0">
          <mxGeometry x="-572" y="1861" width="185" height="40" as="geometry" />
        </mxCell>
        <mxCell id="vkENzP75K5TKaXmKiikp-112" value="" style="group" parent="vkENzP75K5TKaXmKiikp-111" vertex="1" connectable="0">
          <mxGeometry width="185" height="40" as="geometry" />
        </mxCell>
        <mxCell id="vkENzP75K5TKaXmKiikp-113" value="Отобразить страницу профиля&lt;div&gt;пользователя с текущими данными&lt;/div&gt;" style="text;html=1;align=center;verticalAlign=middle;resizable=0;points=[];autosize=1;strokeColor=none;fillColor=none;" parent="vkENzP75K5TKaXmKiikp-112" vertex="1">
          <mxGeometry x="-35" width="220" height="40" as="geometry" />
        </mxCell>
        <mxCell id="vkENzP75K5TKaXmKiikp-114" value="" style="endArrow=classic;html=1;rounded=0;entryX=1;entryY=0.25;entryDx=0;entryDy=0;exitX=0;exitY=0.25;exitDx=0;exitDy=0;dashed=1;" parent="1" edge="1">
          <mxGeometry width="50" height="50" relative="1" as="geometry">
            <mxPoint x="-377" y="1901.0000000000007" as="sourcePoint" />
            <mxPoint x="-606.9999999999999" y="1901" as="targetPoint" />
          </mxGeometry>
        </mxCell>
        <mxCell id="vkENzP75K5TKaXmKiikp-115" value="" style="endArrow=classic;html=1;rounded=0;exitX=1;exitY=0.5;exitDx=0;exitDy=0;entryX=0;entryY=0.5;entryDx=0;entryDy=0;" parent="1" edge="1">
          <mxGeometry width="50" height="50" relative="1" as="geometry">
            <mxPoint x="-607.0000000000002" y="1980" as="sourcePoint" />
            <mxPoint x="-376.9999999999998" y="1980" as="targetPoint" />
          </mxGeometry>
        </mxCell>
        <mxCell id="vkENzP75K5TKaXmKiikp-116" value="Ввести новые данные" style="text;html=1;align=center;verticalAlign=middle;resizable=0;points=[];autosize=1;strokeColor=none;fillColor=none;" parent="1" vertex="1">
          <mxGeometry x="-570.5" y="1950" width="150" height="30" as="geometry" />
        </mxCell>
        <mxCell id="vkENzP75K5TKaXmKiikp-117" value="" style="endArrow=classic;html=1;rounded=0;exitX=1.167;exitY=0.549;exitDx=0;exitDy=0;exitPerimeter=0;entryX=-0.367;entryY=0.549;entryDx=0;entryDy=0;entryPerimeter=0;" parent="1" source="vkENzP75K5TKaXmKiikp-89" target="vkENzP75K5TKaXmKiikp-90" edge="1">
          <mxGeometry width="50" height="50" relative="1" as="geometry">
            <mxPoint x="-287" y="2140" as="sourcePoint" />
            <mxPoint x="-237" y="2090" as="targetPoint" />
          </mxGeometry>
        </mxCell>
        <mxCell id="vkENzP75K5TKaXmKiikp-118" value="Передать данные" style="text;html=1;align=center;verticalAlign=middle;resizable=0;points=[];autosize=1;strokeColor=none;fillColor=none;" parent="1" vertex="1">
          <mxGeometry x="-322" y="2020" width="120" height="30" as="geometry" />
        </mxCell>
        <mxCell id="vkENzP75K5TKaXmKiikp-119" value="" style="rounded=0;whiteSpace=wrap;html=1;" parent="1" vertex="1">
          <mxGeometry x="-132" y="2080" width="10" height="40" as="geometry" />
        </mxCell>
        <mxCell id="vkENzP75K5TKaXmKiikp-120" value="" style="edgeStyle=segmentEdgeStyle;endArrow=classic;html=1;curved=0;rounded=0;endSize=8;startSize=8;sourcePerimeterSpacing=0;targetPerimeterSpacing=0;entryX=1;entryY=0.5;entryDx=0;entryDy=0;exitX=1.033;exitY=0.577;exitDx=0;exitDy=0;exitPerimeter=0;" parent="1" source="vkENzP75K5TKaXmKiikp-90" edge="1">
          <mxGeometry width="100" relative="1" as="geometry">
            <mxPoint x="-122" y="2070" as="sourcePoint" />
            <mxPoint x="-120" y="2111" as="targetPoint" />
            <Array as="points">
              <mxPoint x="-127" y="2070" />
              <mxPoint x="-85" y="2070" />
              <mxPoint x="-85" y="2111" />
            </Array>
          </mxGeometry>
        </mxCell>
        <mxCell id="vkENzP75K5TKaXmKiikp-121" value="Проверить&amp;nbsp;&lt;div&gt;введённые данные&lt;/div&gt;" style="text;html=1;align=center;verticalAlign=middle;resizable=0;points=[];autosize=1;strokeColor=none;fillColor=none;" parent="1" vertex="1">
          <mxGeometry x="-87" y="2070" width="130" height="40" as="geometry" />
        </mxCell>
        <mxCell id="vkENzP75K5TKaXmKiikp-122" value="" style="endArrow=classic;html=1;rounded=0;exitX=-0.367;exitY=0.668;exitDx=0;exitDy=0;exitPerimeter=0;entryX=1.167;entryY=0.669;entryDx=0;entryDy=0;entryPerimeter=0;dashed=1;" parent="1" source="vkENzP75K5TKaXmKiikp-90" target="vkENzP75K5TKaXmKiikp-89" edge="1">
          <mxGeometry width="50" height="50" relative="1" as="geometry">
            <mxPoint x="-227" y="2210" as="sourcePoint" />
            <mxPoint x="-177" y="2160" as="targetPoint" />
          </mxGeometry>
        </mxCell>
        <mxCell id="vkENzP75K5TKaXmKiikp-123" value="Вернуть результат проверки данных" style="text;html=1;align=center;verticalAlign=middle;resizable=0;points=[];autosize=1;strokeColor=none;fillColor=none;" parent="1" vertex="1">
          <mxGeometry x="-374.5" y="2110" width="230" height="30" as="geometry" />
        </mxCell>
        <mxCell id="vkENzP75K5TKaXmKiikp-124" value="" style="rounded=0;whiteSpace=wrap;html=1;" parent="1" vertex="1">
          <mxGeometry x="-372" y="2209.92" width="10" height="40" as="geometry" />
        </mxCell>
        <mxCell id="vkENzP75K5TKaXmKiikp-125" value="" style="edgeStyle=segmentEdgeStyle;endArrow=classic;html=1;curved=0;rounded=0;endSize=8;startSize=8;sourcePerimeterSpacing=0;targetPerimeterSpacing=0;entryX=1;entryY=0.5;entryDx=0;entryDy=0;exitX=1.033;exitY=0.577;exitDx=0;exitDy=0;exitPerimeter=0;" parent="1" edge="1">
          <mxGeometry width="100" relative="1" as="geometry">
            <mxPoint x="-367" y="2201.92" as="sourcePoint" />
            <mxPoint x="-360" y="2240.92" as="targetPoint" />
            <Array as="points">
              <mxPoint x="-367" y="2199.92" />
              <mxPoint x="-325" y="2199.92" />
              <mxPoint x="-325" y="2240.92" />
            </Array>
          </mxGeometry>
        </mxCell>
        <mxCell id="vkENzP75K5TKaXmKiikp-126" value="Открыть главную страницу" style="text;html=1;align=center;verticalAlign=middle;resizable=0;points=[];autosize=1;strokeColor=none;fillColor=none;" parent="1" vertex="1">
          <mxGeometry x="-324" y="2209.92" width="170" height="30" as="geometry" />
        </mxCell>
        <mxCell id="vkENzP75K5TKaXmKiikp-127" value="" style="endArrow=classic;html=1;rounded=0;exitX=-0.145;exitY=0.822;exitDx=0;exitDy=0;exitPerimeter=0;dashed=1;entryX=1.149;entryY=0.821;entryDx=0;entryDy=0;entryPerimeter=0;" parent="1" source="vkENzP75K5TKaXmKiikp-89" target="vkENzP75K5TKaXmKiikp-88" edge="1">
          <mxGeometry width="50" height="50" relative="1" as="geometry">
            <mxPoint x="-487" y="2300" as="sourcePoint" />
            <mxPoint x="-607" y="2250" as="targetPoint" />
          </mxGeometry>
        </mxCell>
        <mxCell id="vkENzP75K5TKaXmKiikp-128" value="" style="group" parent="1" vertex="1" connectable="0">
          <mxGeometry x="-570.5" y="2230" width="175" height="40" as="geometry" />
        </mxCell>
        <mxCell id="vkENzP75K5TKaXmKiikp-129" value="Отобразить главную&lt;div&gt;страницу приложения&lt;/div&gt;" style="text;html=1;align=center;verticalAlign=middle;resizable=0;points=[];autosize=1;strokeColor=none;fillColor=none;" parent="vkENzP75K5TKaXmKiikp-128" vertex="1">
          <mxGeometry width="150" height="40" as="geometry" />
        </mxCell>
        <mxCell id="vkENzP75K5TKaXmKiikp-130" value="" style="endArrow=none;html=1;rounded=0;" parent="1" edge="1">
          <mxGeometry width="50" height="50" relative="1" as="geometry">
            <mxPoint x="-747" y="2280" as="sourcePoint" />
            <mxPoint x="-27" y="2280" as="targetPoint" />
          </mxGeometry>
        </mxCell>
        <mxCell id="vkENzP75K5TKaXmKiikp-131" value="&lt;b&gt;Просмотр календаря&lt;/b&gt;" style="text;html=1;align=center;verticalAlign=middle;resizable=0;points=[];autosize=1;strokeColor=none;fillColor=none;" parent="1" vertex="1">
          <mxGeometry x="-772" y="2290" width="150" height="30" as="geometry" />
        </mxCell>
        <mxCell id="vkENzP75K5TKaXmKiikp-132" value="" style="edgeStyle=none;orthogonalLoop=1;jettySize=auto;html=1;rounded=0;exitX=1.176;exitY=0.901;exitDx=0;exitDy=0;exitPerimeter=0;entryX=-0.424;entryY=0.9;entryDx=0;entryDy=0;entryPerimeter=0;" parent="1" source="vkENzP75K5TKaXmKiikp-88" target="vkENzP75K5TKaXmKiikp-89" edge="1">
          <mxGeometry width="100" relative="1" as="geometry">
            <mxPoint x="-577" y="2370" as="sourcePoint" />
            <mxPoint x="-477" y="2370" as="targetPoint" />
            <Array as="points" />
          </mxGeometry>
        </mxCell>
        <mxCell id="vkENzP75K5TKaXmKiikp-133" value="Открыть страницу календаря" style="text;html=1;align=center;verticalAlign=middle;resizable=0;points=[];autosize=1;strokeColor=none;fillColor=none;" parent="1" vertex="1">
          <mxGeometry x="-597" y="2300" width="190" height="30" as="geometry" />
        </mxCell>
        <mxCell id="vkENzP75K5TKaXmKiikp-134" value="" style="whiteSpace=wrap;html=1;" parent="1" vertex="1">
          <mxGeometry x="-377" y="2280" width="10" height="550" as="geometry" />
        </mxCell>
        <mxCell id="vkENzP75K5TKaXmKiikp-135" value="" style="whiteSpace=wrap;html=1;" parent="1" vertex="1">
          <mxGeometry x="-137" y="2280" width="10" height="550" as="geometry" />
        </mxCell>
        <mxCell id="vkENzP75K5TKaXmKiikp-136" value="" style="whiteSpace=wrap;html=1;" parent="1" vertex="1">
          <mxGeometry x="-617" y="2280" width="10" height="1190" as="geometry" />
        </mxCell>
        <mxCell id="vkENzP75K5TKaXmKiikp-137" value="" style="endArrow=classic;html=1;rounded=0;exitX=-0.3;exitY=0.8;exitDx=0;exitDy=0;exitPerimeter=0;dashed=1;" parent="1" edge="1">
          <mxGeometry width="50" height="50" relative="1" as="geometry">
            <mxPoint x="-380" y="2462" as="sourcePoint" />
            <mxPoint x="-607" y="2462" as="targetPoint" />
          </mxGeometry>
        </mxCell>
        <mxCell id="vkENzP75K5TKaXmKiikp-138" value="" style="group" parent="1" vertex="1" connectable="0">
          <mxGeometry x="-319.5" y="1770" width="195" height="40" as="geometry" />
        </mxCell>
        <mxCell id="vkENzP75K5TKaXmKiikp-139" value="Запросить текущие&lt;div&gt;данные пользователя&lt;/div&gt;" style="text;html=1;align=center;verticalAlign=middle;resizable=0;points=[];autosize=1;strokeColor=none;fillColor=none;" parent="vkENzP75K5TKaXmKiikp-138" vertex="1">
          <mxGeometry x="-10" width="150" height="40" as="geometry" />
        </mxCell>
        <mxCell id="vkENzP75K5TKaXmKiikp-140" value="" style="endArrow=classic;html=1;rounded=0;exitX=1;exitY=0.25;exitDx=0;exitDy=0;entryX=0;entryY=0.25;entryDx=0;entryDy=0;" parent="1" source="vkENzP75K5TKaXmKiikp-89" target="vkENzP75K5TKaXmKiikp-90" edge="1">
          <mxGeometry width="50" height="50" relative="1" as="geometry">
            <mxPoint x="-292" y="1865" as="sourcePoint" />
            <mxPoint x="-242" y="1815" as="targetPoint" />
          </mxGeometry>
        </mxCell>
        <mxCell id="vkENzP75K5TKaXmKiikp-141" value="" style="endArrow=classic;html=1;rounded=0;exitX=-0.367;exitY=0.668;exitDx=0;exitDy=0;exitPerimeter=0;entryX=1.167;entryY=0.669;entryDx=0;entryDy=0;entryPerimeter=0;dashed=1;" parent="1" edge="1">
          <mxGeometry width="50" height="50" relative="1" as="geometry">
            <mxPoint x="-138.5" y="1860" as="sourcePoint" />
            <mxPoint x="-362.5" y="1861" as="targetPoint" />
          </mxGeometry>
        </mxCell>
        <mxCell id="vkENzP75K5TKaXmKiikp-142" value="Вернуть текущие&lt;div&gt;данные пользователя&lt;/div&gt;" style="text;html=1;align=center;verticalAlign=middle;resizable=0;points=[];autosize=1;strokeColor=none;fillColor=none;" parent="1" vertex="1">
          <mxGeometry x="-332" y="1821" width="150" height="40" as="geometry" />
        </mxCell>
        <mxCell id="vkENzP75K5TKaXmKiikp-148" value="" style="endArrow=classic;html=1;rounded=0;exitX=1;exitY=0.25;exitDx=0;exitDy=0;entryX=0;entryY=0.25;entryDx=0;entryDy=0;" parent="1" edge="1">
          <mxGeometry width="50" height="50" relative="1" as="geometry">
            <mxPoint x="-364.5" y="2380" as="sourcePoint" />
            <mxPoint x="-136" y="2380" as="targetPoint" />
          </mxGeometry>
        </mxCell>
        <mxCell id="vkENzP75K5TKaXmKiikp-149" value="" style="group" parent="1" vertex="1" connectable="0">
          <mxGeometry x="-327" y="2340" width="195" height="40" as="geometry" />
        </mxCell>
        <mxCell id="vkENzP75K5TKaXmKiikp-150" value="Запросить данные календаря" style="text;html=1;align=center;verticalAlign=middle;resizable=0;points=[];autosize=1;strokeColor=none;fillColor=none;" parent="vkENzP75K5TKaXmKiikp-149" vertex="1">
          <mxGeometry x="-30" y="5" width="190" height="30" as="geometry" />
        </mxCell>
        <mxCell id="vkENzP75K5TKaXmKiikp-151" value="" style="endArrow=classic;html=1;rounded=0;exitX=-0.367;exitY=0.668;exitDx=0;exitDy=0;exitPerimeter=0;entryX=1.167;entryY=0.669;entryDx=0;entryDy=0;entryPerimeter=0;dashed=1;" parent="1" edge="1">
          <mxGeometry width="50" height="50" relative="1" as="geometry">
            <mxPoint x="-141" y="2434" as="sourcePoint" />
            <mxPoint x="-365" y="2435" as="targetPoint" />
          </mxGeometry>
        </mxCell>
        <mxCell id="vkENzP75K5TKaXmKiikp-152" value="Вернуть данные календаря" style="text;html=1;align=center;verticalAlign=middle;resizable=0;points=[];autosize=1;strokeColor=none;fillColor=none;" parent="1" vertex="1">
          <mxGeometry x="-349.5" y="2400" width="180" height="30" as="geometry" />
        </mxCell>
        <mxCell id="vkENzP75K5TKaXmKiikp-153" value="Отобразить страницу календаря" style="text;html=1;align=center;verticalAlign=middle;resizable=0;points=[];autosize=1;strokeColor=none;fillColor=none;" parent="1" vertex="1">
          <mxGeometry x="-593.5" y="2430" width="210" height="30" as="geometry" />
        </mxCell>
        <mxCell id="vkENzP75K5TKaXmKiikp-154" value="" style="group" parent="1" vertex="1" connectable="0">
          <mxGeometry x="-464.5" y="1999.96" width="520" height="180.08" as="geometry" />
        </mxCell>
        <mxCell id="vkENzP75K5TKaXmKiikp-155" value="" style="group" parent="vkENzP75K5TKaXmKiikp-154" vertex="1" connectable="0">
          <mxGeometry width="520" height="180.08" as="geometry" />
        </mxCell>
        <mxCell id="vkENzP75K5TKaXmKiikp-156" value="" style="rounded=0;whiteSpace=wrap;html=1;fillColor=none;" parent="vkENzP75K5TKaXmKiikp-155" vertex="1">
          <mxGeometry width="520" height="180.08" as="geometry" />
        </mxCell>
        <mxCell id="vkENzP75K5TKaXmKiikp-157" value="loop" style="whiteSpace=wrap;html=1;fillColor=none;" parent="vkENzP75K5TKaXmKiikp-155" vertex="1">
          <mxGeometry width="73.53535353535352" height="42.371764705882356" as="geometry" />
        </mxCell>
        <mxCell id="vkENzP75K5TKaXmKiikp-158" value="" style="endArrow=none;html=1;rounded=0;" parent="1" edge="1">
          <mxGeometry width="50" height="50" relative="1" as="geometry">
            <mxPoint x="-747" y="2480" as="sourcePoint" />
            <mxPoint x="-27" y="2480" as="targetPoint" />
          </mxGeometry>
        </mxCell>
        <mxCell id="vkENzP75K5TKaXmKiikp-173" value="" style="whiteSpace=wrap;html=1;" parent="1" vertex="1">
          <mxGeometry x="-377" y="2480" width="10" height="990" as="geometry" />
        </mxCell>
        <mxCell id="vkENzP75K5TKaXmKiikp-174" value="" style="whiteSpace=wrap;html=1;" parent="1" vertex="1">
          <mxGeometry x="-137" y="2480" width="10" height="990" as="geometry" />
        </mxCell>
        <mxCell id="vkENzP75K5TKaXmKiikp-225" value="&lt;b&gt;Просмотр домашнего задания&lt;/b&gt;" style="text;html=1;align=center;verticalAlign=middle;resizable=0;points=[];autosize=1;strokeColor=none;fillColor=none;" parent="1" vertex="1">
          <mxGeometry x="-827" y="2510" width="200" height="30" as="geometry" />
        </mxCell>
        <mxCell id="vkENzP75K5TKaXmKiikp-226" value="Открыть страницу домашних заданий" style="text;html=1;align=center;verticalAlign=middle;resizable=0;points=[];autosize=1;strokeColor=none;fillColor=none;" parent="1" vertex="1">
          <mxGeometry x="-607" y="2500" width="240" height="30" as="geometry" />
        </mxCell>
        <mxCell id="vkENzP75K5TKaXmKiikp-227" value="" style="edgeStyle=none;orthogonalLoop=1;jettySize=auto;html=1;rounded=0;exitX=1.176;exitY=0.901;exitDx=0;exitDy=0;exitPerimeter=0;entryX=0.095;entryY=0.527;entryDx=0;entryDy=0;entryPerimeter=0;" parent="1" edge="1">
          <mxGeometry width="100" relative="1" as="geometry">
            <mxPoint x="-604" y="2530.47" as="sourcePoint" />
            <mxPoint x="-373.5" y="2530" as="targetPoint" />
            <Array as="points" />
          </mxGeometry>
        </mxCell>
        <mxCell id="vkENzP75K5TKaXmKiikp-228" value="" style="group" parent="1" vertex="1" connectable="0">
          <mxGeometry x="-316.5" y="2540" width="195" height="40" as="geometry" />
        </mxCell>
        <mxCell id="vkENzP75K5TKaXmKiikp-229" value="Запросить список домашних заданий" style="text;html=1;align=center;verticalAlign=middle;resizable=0;points=[];autosize=1;strokeColor=none;fillColor=none;" parent="vkENzP75K5TKaXmKiikp-228" vertex="1">
          <mxGeometry x="-50" y="5" width="230" height="30" as="geometry" />
        </mxCell>
        <mxCell id="vkENzP75K5TKaXmKiikp-230" value="" style="endArrow=classic;html=1;rounded=0;exitX=1;exitY=0.25;exitDx=0;exitDy=0;entryX=0;entryY=0.25;entryDx=0;entryDy=0;" parent="1" edge="1">
          <mxGeometry width="50" height="50" relative="1" as="geometry">
            <mxPoint x="-364.5" y="2580" as="sourcePoint" />
            <mxPoint x="-136" y="2580" as="targetPoint" />
          </mxGeometry>
        </mxCell>
        <mxCell id="vkENzP75K5TKaXmKiikp-231" value="Вернуть список домашних заданий" style="text;html=1;align=center;verticalAlign=middle;resizable=0;points=[];autosize=1;strokeColor=none;fillColor=none;" parent="1" vertex="1">
          <mxGeometry x="-369" y="2610" width="220" height="30" as="geometry" />
        </mxCell>
        <mxCell id="vkENzP75K5TKaXmKiikp-232" value="" style="endArrow=classic;html=1;rounded=0;exitX=-0.367;exitY=0.668;exitDx=0;exitDy=0;exitPerimeter=0;entryX=1.167;entryY=0.669;entryDx=0;entryDy=0;entryPerimeter=0;dashed=1;" parent="1" edge="1">
          <mxGeometry width="50" height="50" relative="1" as="geometry">
            <mxPoint x="-140.5" y="2644.0000000000005" as="sourcePoint" />
            <mxPoint x="-364.5" y="2645.0000000000005" as="targetPoint" />
          </mxGeometry>
        </mxCell>
        <mxCell id="vkENzP75K5TKaXmKiikp-233" value="Отобразить страницу&lt;div&gt;домашних заданий&lt;/div&gt;" style="text;html=1;align=center;verticalAlign=middle;resizable=0;points=[];autosize=1;strokeColor=none;fillColor=none;" parent="1" vertex="1">
          <mxGeometry x="-556" y="2625" width="140" height="40" as="geometry" />
        </mxCell>
        <mxCell id="vkENzP75K5TKaXmKiikp-234" value="" style="endArrow=classic;html=1;rounded=0;exitX=-0.3;exitY=0.8;exitDx=0;exitDy=0;exitPerimeter=0;dashed=1;" parent="1" edge="1">
          <mxGeometry width="50" height="50" relative="1" as="geometry">
            <mxPoint x="-377.5" y="2662.0000000000005" as="sourcePoint" />
            <mxPoint x="-604.5" y="2662.0000000000005" as="targetPoint" />
          </mxGeometry>
        </mxCell>
        <mxCell id="vkENzP75K5TKaXmKiikp-235" value="Открыть&lt;div&gt;домашнее задание&lt;/div&gt;" style="text;html=1;align=center;verticalAlign=middle;resizable=0;points=[];autosize=1;strokeColor=none;fillColor=none;" parent="1" vertex="1">
          <mxGeometry x="-554.5" y="2685.0000000000005" width="130" height="40" as="geometry" />
        </mxCell>
        <mxCell id="vkENzP75K5TKaXmKiikp-236" value="" style="edgeStyle=none;orthogonalLoop=1;jettySize=auto;html=1;rounded=0;exitX=1.176;exitY=0.901;exitDx=0;exitDy=0;exitPerimeter=0;entryX=0;entryY=0.891;entryDx=0;entryDy=0;entryPerimeter=0;" parent="1" edge="1">
          <mxGeometry width="100" relative="1" as="geometry">
            <mxPoint x="-606.5" y="2721" as="sourcePoint" />
            <mxPoint x="-377" y="2720" as="targetPoint" />
            <Array as="points" />
          </mxGeometry>
        </mxCell>
        <mxCell id="vkENzP75K5TKaXmKiikp-237" value="Отобразить информацию о&lt;div&gt;домашнем задании&lt;/div&gt;" style="text;html=1;align=center;verticalAlign=middle;resizable=0;points=[];autosize=1;strokeColor=none;fillColor=none;" parent="1" vertex="1">
          <mxGeometry x="-578.5" y="2760" width="180" height="40" as="geometry" />
        </mxCell>
        <mxCell id="vkENzP75K5TKaXmKiikp-238" value="" style="endArrow=classic;html=1;rounded=0;exitX=-0.3;exitY=0.8;exitDx=0;exitDy=0;exitPerimeter=0;dashed=1;" parent="1" edge="1">
          <mxGeometry width="50" height="50" relative="1" as="geometry">
            <mxPoint x="-381" y="2800" as="sourcePoint" />
            <mxPoint x="-608" y="2800" as="targetPoint" />
          </mxGeometry>
        </mxCell>
        <mxCell id="vkENzP75K5TKaXmKiikp-239" value="" style="group" parent="1" vertex="1" connectable="0">
          <mxGeometry x="-317" y="2700.0000000000005" width="195" height="40" as="geometry" />
        </mxCell>
        <mxCell id="vkENzP75K5TKaXmKiikp-240" value="Запросить информацию&lt;div&gt;о домашнем задании&lt;/div&gt;" style="text;html=1;align=center;verticalAlign=middle;resizable=0;points=[];autosize=1;strokeColor=none;fillColor=none;" parent="vkENzP75K5TKaXmKiikp-239" vertex="1">
          <mxGeometry x="-15" width="160" height="40" as="geometry" />
        </mxCell>
        <mxCell id="vkENzP75K5TKaXmKiikp-241" value="" style="endArrow=classic;html=1;rounded=0;exitX=1;exitY=0.25;exitDx=0;exitDy=0;entryX=0;entryY=0.25;entryDx=0;entryDy=0;" parent="1" edge="1">
          <mxGeometry width="50" height="50" relative="1" as="geometry">
            <mxPoint x="-365" y="2740" as="sourcePoint" />
            <mxPoint x="-136.5" y="2740" as="targetPoint" />
          </mxGeometry>
        </mxCell>
        <mxCell id="vkENzP75K5TKaXmKiikp-242" value="Вернуть информацию&lt;div&gt;о домашнем задании&lt;/div&gt;" style="text;html=1;align=center;verticalAlign=middle;resizable=0;points=[];autosize=1;strokeColor=none;fillColor=none;" parent="1" vertex="1">
          <mxGeometry x="-332" y="2750" width="150" height="40" as="geometry" />
        </mxCell>
        <mxCell id="vkENzP75K5TKaXmKiikp-243" value="" style="endArrow=classic;html=1;rounded=0;exitX=-0.367;exitY=0.668;exitDx=0;exitDy=0;exitPerimeter=0;entryX=1.167;entryY=0.669;entryDx=0;entryDy=0;entryPerimeter=0;dashed=1;" parent="1" edge="1">
          <mxGeometry width="50" height="50" relative="1" as="geometry">
            <mxPoint x="-140.5" y="2790" as="sourcePoint" />
            <mxPoint x="-364.5" y="2791" as="targetPoint" />
          </mxGeometry>
        </mxCell>
        <mxCell id="eUke6IJxgP3zkBYUh12B-1" value="&lt;b&gt;Отправка жалобы&lt;/b&gt;" style="text;html=1;align=center;verticalAlign=middle;resizable=0;points=[];autosize=1;strokeColor=none;fillColor=none;" vertex="1" parent="1">
          <mxGeometry x="-752" y="2923" width="130" height="30" as="geometry" />
        </mxCell>
        <mxCell id="eUke6IJxgP3zkBYUh12B-2" value="" style="endArrow=none;html=1;rounded=0;" edge="1" parent="1">
          <mxGeometry width="50" height="50" relative="1" as="geometry">
            <mxPoint x="-747" y="2900" as="sourcePoint" />
            <mxPoint x="-27" y="2900" as="targetPoint" />
          </mxGeometry>
        </mxCell>
        <mxCell id="eUke6IJxgP3zkBYUh12B-3" value="Открыть страницу пользователя" style="text;html=1;align=center;verticalAlign=middle;resizable=0;points=[];autosize=1;strokeColor=none;fillColor=none;" vertex="1" parent="1">
          <mxGeometry x="-586" y="2950" width="200" height="30" as="geometry" />
        </mxCell>
        <mxCell id="eUke6IJxgP3zkBYUh12B-4" value="" style="edgeStyle=none;orthogonalLoop=1;jettySize=auto;html=1;rounded=0;exitX=1.176;exitY=0.901;exitDx=0;exitDy=0;exitPerimeter=0;entryX=0.095;entryY=0.527;entryDx=0;entryDy=0;entryPerimeter=0;" edge="1" parent="1">
          <mxGeometry width="100" relative="1" as="geometry">
            <mxPoint x="-606.25" y="2980.47" as="sourcePoint" />
            <mxPoint x="-375.75" y="2980" as="targetPoint" />
            <Array as="points" />
          </mxGeometry>
        </mxCell>
        <mxCell id="eUke6IJxgP3zkBYUh12B-5" value="" style="group" vertex="1" connectable="0" parent="1">
          <mxGeometry x="-318.75" y="2990" width="195" height="40" as="geometry" />
        </mxCell>
        <mxCell id="eUke6IJxgP3zkBYUh12B-6" value="Запросить данные о пользователе" style="text;html=1;align=center;verticalAlign=middle;resizable=0;points=[];autosize=1;strokeColor=none;fillColor=none;" vertex="1" parent="eUke6IJxgP3zkBYUh12B-5">
          <mxGeometry x="-45" y="5" width="220" height="30" as="geometry" />
        </mxCell>
        <mxCell id="eUke6IJxgP3zkBYUh12B-7" value="" style="endArrow=classic;html=1;rounded=0;exitX=1;exitY=0.25;exitDx=0;exitDy=0;entryX=0;entryY=0.25;entryDx=0;entryDy=0;" edge="1" parent="1">
          <mxGeometry width="50" height="50" relative="1" as="geometry">
            <mxPoint x="-366.75" y="3030" as="sourcePoint" />
            <mxPoint x="-138.25" y="3030" as="targetPoint" />
          </mxGeometry>
        </mxCell>
        <mxCell id="eUke6IJxgP3zkBYUh12B-8" value="Вернуть данные пользователя" style="text;html=1;align=center;verticalAlign=middle;resizable=0;points=[];autosize=1;strokeColor=none;fillColor=none;" vertex="1" parent="1">
          <mxGeometry x="-356.25" y="3060" width="190" height="30" as="geometry" />
        </mxCell>
        <mxCell id="eUke6IJxgP3zkBYUh12B-9" value="" style="endArrow=classic;html=1;rounded=0;exitX=-0.367;exitY=0.668;exitDx=0;exitDy=0;exitPerimeter=0;entryX=1.167;entryY=0.669;entryDx=0;entryDy=0;entryPerimeter=0;dashed=1;" edge="1" parent="1">
          <mxGeometry width="50" height="50" relative="1" as="geometry">
            <mxPoint x="-142.75" y="3094.0000000000005" as="sourcePoint" />
            <mxPoint x="-366.75" y="3095.0000000000005" as="targetPoint" />
          </mxGeometry>
        </mxCell>
        <mxCell id="eUke6IJxgP3zkBYUh12B-10" value="Отобразить страницу&lt;div&gt;профиля пользователя&lt;/div&gt;" style="text;html=1;align=center;verticalAlign=middle;resizable=0;points=[];autosize=1;strokeColor=none;fillColor=none;" vertex="1" parent="1">
          <mxGeometry x="-563.25" y="3075" width="150" height="40" as="geometry" />
        </mxCell>
        <mxCell id="eUke6IJxgP3zkBYUh12B-11" value="" style="endArrow=classic;html=1;rounded=0;exitX=-0.3;exitY=0.8;exitDx=0;exitDy=0;exitPerimeter=0;dashed=1;" edge="1" parent="1">
          <mxGeometry width="50" height="50" relative="1" as="geometry">
            <mxPoint x="-379.75" y="3112.0000000000005" as="sourcePoint" />
            <mxPoint x="-606.75" y="3112.0000000000005" as="targetPoint" />
          </mxGeometry>
        </mxCell>
        <mxCell id="eUke6IJxgP3zkBYUh12B-12" value="Открыть страницу жалобы" style="text;html=1;align=center;verticalAlign=middle;resizable=0;points=[];autosize=1;strokeColor=none;fillColor=none;" vertex="1" parent="1">
          <mxGeometry x="-576.75" y="3140.0000000000005" width="170" height="30" as="geometry" />
        </mxCell>
        <mxCell id="eUke6IJxgP3zkBYUh12B-13" value="" style="edgeStyle=none;orthogonalLoop=1;jettySize=auto;html=1;rounded=0;exitX=1.176;exitY=0.901;exitDx=0;exitDy=0;exitPerimeter=0;entryX=0;entryY=0.891;entryDx=0;entryDy=0;entryPerimeter=0;" edge="1" parent="1">
          <mxGeometry width="100" relative="1" as="geometry">
            <mxPoint x="-608.75" y="3171" as="sourcePoint" />
            <mxPoint x="-379.25" y="3170" as="targetPoint" />
            <Array as="points" />
          </mxGeometry>
        </mxCell>
        <mxCell id="eUke6IJxgP3zkBYUh12B-14" value="Отобразить страницу жалобы" style="text;html=1;align=center;verticalAlign=middle;resizable=0;points=[];autosize=1;strokeColor=none;fillColor=none;" vertex="1" parent="1">
          <mxGeometry x="-587" y="3180" width="190" height="30" as="geometry" />
        </mxCell>
        <mxCell id="eUke6IJxgP3zkBYUh12B-15" value="" style="endArrow=classic;html=1;rounded=0;exitX=-0.3;exitY=0.8;exitDx=0;exitDy=0;exitPerimeter=0;dashed=1;" edge="1" parent="1">
          <mxGeometry width="50" height="50" relative="1" as="geometry">
            <mxPoint x="-382" y="3210" as="sourcePoint" />
            <mxPoint x="-609" y="3210" as="targetPoint" />
          </mxGeometry>
        </mxCell>
        <mxCell id="eUke6IJxgP3zkBYUh12B-16" value="" style="group" vertex="1" connectable="0" parent="1">
          <mxGeometry x="-319.5" y="3280.0000000000005" width="195" height="40" as="geometry" />
        </mxCell>
        <mxCell id="eUke6IJxgP3zkBYUh12B-17" value="Передать данные о жалобе" style="text;html=1;align=center;verticalAlign=middle;resizable=0;points=[];autosize=1;strokeColor=none;fillColor=none;" vertex="1" parent="eUke6IJxgP3zkBYUh12B-16">
          <mxGeometry x="-25" y="5" width="180" height="30" as="geometry" />
        </mxCell>
        <mxCell id="eUke6IJxgP3zkBYUh12B-18" value="" style="endArrow=classic;html=1;rounded=0;exitX=1;exitY=0.25;exitDx=0;exitDy=0;entryX=0;entryY=0.25;entryDx=0;entryDy=0;" edge="1" parent="1">
          <mxGeometry width="50" height="50" relative="1" as="geometry">
            <mxPoint x="-367" y="3320" as="sourcePoint" />
            <mxPoint x="-138.5" y="3320" as="targetPoint" />
          </mxGeometry>
        </mxCell>
        <mxCell id="eUke6IJxgP3zkBYUh12B-19" value="Вернуть результат" style="text;html=1;align=center;verticalAlign=middle;resizable=0;points=[];autosize=1;strokeColor=none;fillColor=none;" vertex="1" parent="1">
          <mxGeometry x="-320.75" y="3365" width="130" height="30" as="geometry" />
        </mxCell>
        <mxCell id="eUke6IJxgP3zkBYUh12B-20" value="" style="endArrow=classic;html=1;rounded=0;exitX=-0.367;exitY=0.668;exitDx=0;exitDy=0;exitPerimeter=0;entryX=1.167;entryY=0.669;entryDx=0;entryDy=0;entryPerimeter=0;dashed=1;" edge="1" parent="1">
          <mxGeometry width="50" height="50" relative="1" as="geometry">
            <mxPoint x="-139.25" y="3400" as="sourcePoint" />
            <mxPoint x="-363.25" y="3401" as="targetPoint" />
          </mxGeometry>
        </mxCell>
        <mxCell id="eUke6IJxgP3zkBYUh12B-21" value="" style="edgeStyle=none;orthogonalLoop=1;jettySize=auto;html=1;rounded=0;exitX=1.176;exitY=0.901;exitDx=0;exitDy=0;exitPerimeter=0;entryX=0;entryY=0.891;entryDx=0;entryDy=0;entryPerimeter=0;" edge="1" parent="1">
          <mxGeometry width="100" relative="1" as="geometry">
            <mxPoint x="-606.5" y="3271" as="sourcePoint" />
            <mxPoint x="-377" y="3270" as="targetPoint" />
            <Array as="points" />
          </mxGeometry>
        </mxCell>
        <mxCell id="eUke6IJxgP3zkBYUh12B-22" value="Написать причину жалобы и отправить" style="text;html=1;align=center;verticalAlign=middle;resizable=0;points=[];autosize=1;strokeColor=none;fillColor=none;" vertex="1" parent="1">
          <mxGeometry x="-609.5" y="3240.0000000000005" width="240" height="30" as="geometry" />
        </mxCell>
        <mxCell id="eUke6IJxgP3zkBYUh12B-23" value="Внести жалобу&lt;div&gt;в бд&lt;/div&gt;" style="text;html=1;align=center;verticalAlign=middle;resizable=0;points=[];autosize=1;strokeColor=none;fillColor=none;" vertex="1" parent="1">
          <mxGeometry x="-97" y="3340" width="110" height="40" as="geometry" />
        </mxCell>
        <mxCell id="eUke6IJxgP3zkBYUh12B-24" value="" style="edgeStyle=segmentEdgeStyle;endArrow=classic;html=1;curved=0;rounded=0;endSize=8;startSize=8;sourcePerimeterSpacing=0;targetPerimeterSpacing=0;entryX=1;entryY=0.5;entryDx=0;entryDy=0;exitX=1.033;exitY=0.577;exitDx=0;exitDy=0;exitPerimeter=0;" edge="1" parent="1">
          <mxGeometry width="100" relative="1" as="geometry">
            <mxPoint x="-126" y="3341.92" as="sourcePoint" />
            <mxPoint x="-119" y="3380.92" as="targetPoint" />
            <Array as="points">
              <mxPoint x="-126" y="3339.92" />
              <mxPoint x="-84" y="3339.92" />
              <mxPoint x="-84" y="3380.92" />
            </Array>
          </mxGeometry>
        </mxCell>
        <mxCell id="eUke6IJxgP3zkBYUh12B-25" value="" style="rounded=0;whiteSpace=wrap;html=1;" vertex="1" parent="1">
          <mxGeometry x="-131" y="3349.92" width="10" height="40" as="geometry" />
        </mxCell>
        <mxCell id="eUke6IJxgP3zkBYUh12B-26" value="" style="endArrow=classic;html=1;rounded=0;exitX=-0.367;exitY=0.668;exitDx=0;exitDy=0;exitPerimeter=0;entryX=1.167;entryY=0.669;entryDx=0;entryDy=0;entryPerimeter=0;dashed=1;" edge="1" parent="1">
          <mxGeometry width="50" height="50" relative="1" as="geometry">
            <mxPoint x="-380" y="3430" as="sourcePoint" />
            <mxPoint x="-604" y="3431" as="targetPoint" />
          </mxGeometry>
        </mxCell>
        <mxCell id="eUke6IJxgP3zkBYUh12B-27" value="Уведомить об успешности&lt;div&gt;отправки жалобы&lt;/div&gt;" style="text;html=1;align=center;verticalAlign=middle;resizable=0;points=[];autosize=1;strokeColor=none;fillColor=none;" vertex="1" parent="1">
          <mxGeometry x="-581.5" y="3390" width="170" height="40" as="geometry" />
        </mxCell>
      </root>
    </mxGraphModel>
  </diagram>
</mxfile>
